<svg width="40" height="40" viewBox="0 0 40 40" fill="none" xmlns="http://www.w3.org/2000/svg">
<rect width="40" height="40" rx="5" fill="#ED1C24"/>
<path d="M13.7659 31V9.1H20.5459C21.8459 9.1 22.9859 9.37 23.9659 9.91C24.9459 10.43 25.7059 11.16 26.2459 12.1C26.7859 13.04 27.0559 14.14 27.0559 15.4C27.0559 16.88 26.6659 18.15 25.8859 19.21C25.1259 20.27 24.0859 21 22.7659 21.4L27.3559 31H24.1759L19.9759 21.7H16.4659V31H13.7659ZM16.4659 19.27H20.5459C21.6659 19.27 22.5659 18.92 23.2459 18.22C23.9259 17.5 24.2659 16.56 24.2659 15.4C24.2659 14.22 23.9259 13.28 23.2459 12.58C22.5659 11.88 21.6659 11.53 20.5459 11.53H16.4659V19.27Z" fill="white"/>
</svg>
