<svg width="40" height="40" viewBox="0 0 40 40" fill="none" xmlns="http://www.w3.org/2000/svg">
<g clip-path="url(#clip0_1_4)">
<rect width="40" height="40" rx="5" fill="#0066B3"/>
<path d="M13.7959 30V8.1H20.0059C22.0059 8.1 23.5659 8.6 24.6859 9.6C25.8259 10.6 26.3959 11.99 26.3959 13.77C26.3959 14.77 26.1859 15.64 25.7659 16.38C25.3459 17.12 24.7459 17.69 23.9659 18.09C23.2059 18.49 22.2859 18.68 21.2059 18.66V18.21C22.3659 18.19 23.3659 18.41 24.2059 18.87C25.0659 19.33 25.7259 19.99 26.1859 20.85C26.6659 21.71 26.9059 22.73 26.9059 23.91C26.9059 25.15 26.6459 26.23 26.1259 27.15C25.6059 28.07 24.8659 28.78 23.9059 29.28C22.9459 29.76 21.7959 30 20.4559 30H13.7959ZM16.4359 27.57H20.1559C21.4159 27.57 22.4059 27.24 23.1259 26.58C23.8659 25.9 24.2359 24.98 24.2359 23.82C24.2359 22.62 23.8659 21.65 23.1259 20.91C22.4059 20.15 21.4159 19.77 20.1559 19.77H16.4359V27.57ZM16.4359 17.43H19.9759C21.1359 17.43 22.0459 17.12 22.7059 16.5C23.3859 15.88 23.7259 15.04 23.7259 13.98C23.7259 12.92 23.3959 12.08 22.7359 11.46C22.0759 10.84 21.1659 10.53 20.0059 10.53H16.4359V17.43Z" fill="white"/>
</g>
<defs>
<clipPath id="clip0_1_4">
<rect width="40" height="40" rx="5" fill="white"/>
</clipPath>
</defs>
</svg>
