<svg width="40" height="40" viewBox="0 0 40 40" fill="none" xmlns="http://www.w3.org/2000/svg">
<g clip-path="url(#clip0_1_2)">
<rect width="40" height="40" rx="5" fill="#ED1C24"/>
<path d="M9.52625 30L13.6063 10.68H24.4663C26.3463 10.68 27.8063 11.2 28.8463 12.24C29.9063 13.28 30.4363 14.61 30.4363 16.23C30.4363 16.77 30.3763 17.33 30.2563 17.91C29.9963 19.21 29.4563 20.35 28.6363 21.33C27.8363 22.29 26.8263 23.1 25.6063 23.76C25.9263 24.02 26.1263 24.35 26.2063 24.75L27.3763 30H19.8163L18.8263 25.71C18.7463 25.29 18.5063 25.08 18.1063 25.08H17.8063L16.7863 30H9.52625ZM19.0363 19.41H20.8063C21.9863 19.41 22.6763 18.91 22.8763 17.91C22.8963 17.81 22.9063 17.72 22.9063 17.64C22.9263 17.56 22.9363 17.48 22.9363 17.4C22.9363 16.7 22.4763 16.35 21.5563 16.35H19.6663L19.0363 19.41Z" fill="white"/>
</g>
<defs>
<clipPath id="clip0_1_2">
<rect width="40" height="40" rx="5" fill="white"/>
</clipPath>
</defs>
</svg>
