<svg width="500" height="500" xmlns="http://www.w3.org/2000/svg">
 <g id="Layer_1">
  <title>Layer 1</title>
  <path id="svg_10" d="m662,462c159,-24 -74,25 -84,14c-10,-11 217,-34 84,-14z" opacity="NaN" fill-opacity="0" stroke-width="5" stroke="#000000" fill="none"/>
  <text xml:space="preserve" text-anchor="start" font-family="Noto Sans JP" font-size="63" id="svg_45" y="61" x="115" stroke-width="0" stroke="#000000" fill="#000000">Robotic</text>
  <g id="svg_46">
   <line id="svg_1" y2="169.01704" x2="409.80815" y1="130.27223" x1="344.1883" fill-opacity="0" stroke-width="5" stroke="#000000" fill="none"/>
   <path id="svg_6" d="m400.69428,208.68435" opacity="NaN" fill-opacity="0" stroke-width="5" stroke="#000000" fill="none"/>
   <line id="svg_2" y2="167.17205" x2="408.89676" y1="198.5369" x1="424.39034" fill-opacity="0" stroke-width="5" stroke="#000000" fill="none"/>
   <line id="svg_3" y2="199.45939" x2="422.56756" y1="228.05676" x1="427.1245" fill-opacity="0" stroke-width="5" stroke="#000000" fill="none"/>
   <line id="svg_11" y2="213.29683" x2="397.04873" y1="244.66168" x1="335.07443" fill-opacity="0" stroke-width="5" stroke="#000000" fill="none"/>
   <line id="svg_12" y2="222.52178" x2="424.39034" y1="214.21932" x1="394.31457" fill-opacity="0" stroke-width="5" stroke="#000000" fill="none"/>
   <line id="svg_14" y2="216.98681" x2="386.11209" y1="186.54446" x1="334.16305" fill-opacity="0" stroke-width="5" stroke="#000000" fill="none"/>
   <path id="svg_15" d="m311.10951,235.51718l30.77298,-53.00496l30.77298,53.00496l-61.54596,0z" stroke-width="0" stroke="#000000" fill="#ffff00"/>
   <rect id="svg_16" height="44.74653" width="55.28831" y="155.01889" x="344.10737" stroke-width="0" stroke="#000000" fill="#ffff00"/>
   <path id="svg_17" d="m361.66783,171.33264l0,-24.90738l-50.74664,24.90738l50.74664,0z" stroke-width="0" stroke="#000000" fill="#ffff00"/>
   <path id="svg_18" d="m379.19011,218.77014l24.60744,-56.27225l24.60744,56.27225l-49.21488,0z" stroke-width="0" stroke="#000000" fill="#ffff00"/>
   <line stroke-width="3" id="svg_19" y2="171.78453" x2="407.98538" y1="197.6144" x1="347.83385" stroke="#000000" fill="none"/>
   <line id="svg_20" y2="78.61248" x2="254.8724" y1="133.03971" x1="345.09969" fill-opacity="0" stroke-width="5" stroke="#000000" fill="none"/>
   <line id="svg_21" y2="76.76748" x2="256.69517" y1="75.84499" x1="188.34116" fill-opacity="0" stroke-width="5" stroke="#000000" fill="none"/>
   <line id="svg_22" y2="74" x2="188.34116" y1="92.44991" x1="172.84758" fill-opacity="0" stroke-width="5" stroke="#000000" fill="none"/>
   <line id="svg_23" y2="92.44991" x2="172.84759" y1="145.03216" x1="89" fill-opacity="0" stroke-width="5" stroke="#000000" fill="none"/>
   <line id="svg_24" y2="143.18717" x2="91.73416" y1="249.27416" x1="127.27824" fill-opacity="0" stroke-width="5" stroke="#000000" fill="none"/>
   <path id="svg_27" d="m211.12583,130.27223c17.31635,59.03971 100.25255,35.05483 101.16393,21.2174c0.91139,-13.83743 -118.48028,-80.25711 -101.16393,-21.2174z" opacity="NaN" stroke-width="5" stroke="#000000" fill="#ff0000"/>
   <path id="svg_35" d="m252.19052,169.47829c-10.28313,-7.8233 -15.21154,-47.01144 30.02348,-48.43207l33.43278,36.43962l-63.45626,11.99244z" opacity="NaN" stroke-width="5" stroke="#000000" fill="#7f0000"/>
   <path id="svg_37" d="m165.55649,262.18909" opacity="NaN" stroke-width="5" stroke="#000000" fill="#ff0000"/>
   <path id="svg_38" d="m126.36686,246.50667l22.78467,-34.13234l11.84803,17.52742l17.31635,-22.13989l17.31635,32.28734l15.49358,-28.59736l21.87328,33.20984l20.9619,-38.74481l19.13912,47.04727l10.02525,-30.44235l12.75942,18.44991l10.93664,-21.2174l6.37971,29.51986l17.31635,16.60492l4.55693,-18.44991" opacity="NaN" stroke-width="5" stroke="#000000" fill="#423e3e"/>
   <path id="svg_39" d="m128.18963,247.42916" opacity="NaN" stroke-width="5" stroke="#000000" fill="#423e3e"/>
   <path id="svg_40" d="m127.27824,248.35166" opacity="NaN" stroke-width="5" stroke="#000000" fill="#423e3e"/>
   <path id="svg_44" d="m130.01241,245.58417c-18.22774,0 31.89854,150.36677 72.91094,130.07187c41.01241,-20.2949 11.84803,101.47451 126.68276,7.37996c114.83474,-94.09455 -41.01241,-143.9093 0.91139,-132.83936" opacity="NaN" stroke-width="5" stroke="#000000" fill="#7f3f00"/>
  </g>
  <text transform="matrix(1.32021, 0, 0, 1.45009, -32.5406, -212.522)" font-weight="bold" xml:space="preserve" text-anchor="start" font-family="Noto Sans JP" font-size="76" id="svg_47" y="453.80558" x="75.48508" stroke-width="0" stroke="#000000" fill="#000000">Eagles</text>
 </g>

</svg>