<svg width="500" height="500" xmlns="http://www.w3.org/2000/svg">
 <g id="Layer_1">
  <title>Layer 1</title>
  <text font-style="italic" font-weight="normal" xml:space="preserve" text-anchor="start" font-family="'Azeret Mono'" font-size="76" id="svg_4" y="182" x="172" stroke-dasharray="5,2,2,2,2,2" stroke-width="0" stroke="#ffffff" fill="#000000">THE</text>
  <text font-weight="bold" transform="matrix(1.09784, 0, 0, 1.21478, -12.8175, -63.6134)" xml:space="preserve" text-anchor="start" font-family="'Azeret Mono'" font-size="76" id="svg_5" y="263.35933" x="88.18881" stroke-dasharray="5,2,2,2,2,2" stroke-width="0" stroke="#ffffff" fill="#000000">HEXERS</text>
  <g id="svg_15">
   <line id="svg_6" y2="393.99999" x2="274.38028" y1="352.74999" x1="173" stroke-width="7" stroke="#4c4c4c" fill="none"/>
   <line id="svg_7" y2="309.85" x2="199.59155" y1="354.4" x1="177.98592" stroke-width="7" stroke="#4c4c4c" fill="none"/>
   <line id="svg_8" y2="347.8" x2="287.67606" y1="309.85" x1="196.2676" stroke-width="7" stroke="#4c4c4c" fill="none"/>
   <line id="svg_9" y2="349.45" x2="282.69014" y1="390.7" x1="271.05634" stroke-width="7" stroke="#4c4c4c" fill="none"/>
   <line id="svg_10" y2="262" x2="204.57747" y1="308.2" x1="201.25352" stroke-width="7" stroke="#4c4c4c" fill="none"/>
   <line id="svg_11" y2="293.35" x2="289.33803" y1="263.65" x1="202.91549" stroke-width="7" stroke="#4c4c4c" fill="none"/>
   <line id="svg_12" y2="295" x2="291" y1="344.5" x1="286.01408" stroke-width="7" stroke="#4c4c4c" fill="none"/>
   <path id="svg_13" d="m259.94886,301.62817l-7.43321,1.81279c-0.68108,-1.59575 -1.70653,-2.97897 -2.94752,-4.07991l3.93088,-6.11762c0.34564,-0.53979 0.13264,-1.22802 -0.48466,-1.53503c-0.61093,-0.30476 -1.39022,-0.11471 -1.73459,0.42396l-3.72936,5.80499c-0.77036,-0.43071 -1.58153,-0.77482 -2.42332,-1.00761c-0.53058,-1.616 -2.10701,-2.71132 -3.90027,-2.88113c-0.00128,-0.0045 -0.00255,-0.009 -0.00383,-0.01349c-0.0778,-0.27214 -0.11862,-0.5173 -0.12499,-0.73097c-0.00638,-0.21254 0.01531,-0.39472 0.05867,-0.53867c0.04719,-0.14619 0.10076,-0.26427 0.15943,-0.35649c0.18621,-0.29239 0.43365,-0.48356 0.73592,-0.5724c0.02933,0.316 0.18111,0.54204 0.44895,0.67586c0.19769,0.09896 0.42854,0.12932 0.69639,0.09671c0.26912,-0.03486 0.47956,-0.17093 0.63261,-0.40822c0.13392,-0.20917 0.16198,-0.43745 0.08163,-0.68261c-0.08163,-0.24628 -0.25891,-0.43633 -0.52803,-0.57015c-0.19642,-0.09784 -0.40049,-0.14732 -0.61476,-0.14507c-0.213,0.00112 -0.41707,0.03824 -0.61348,0.10908c-0.19514,0.07085 -0.37753,0.17993 -0.54716,0.325c-0.16836,0.14507 -0.30738,0.30476 -0.42089,0.47906c-0.16836,0.26315 -0.27549,0.55778 -0.31886,0.88053c-0.04209,0.32162 -0.04719,0.63538 -0.01148,0.94463c0.02168,0.17993 0.0778,0.33849 0.11989,0.50493c-0.47829,-0.02362 -0.96678,0.00225 -1.45399,0.12145c-0.61476,0.14957 -1.16447,0.40484 -1.63255,0.73434c-0.06632,-0.19342 -0.12499,-0.38685 -0.22958,-0.58252c-0.14795,-0.28002 -0.33544,-0.54654 -0.55864,-0.80519c-0.22703,-0.25752 -0.48977,-0.46107 -0.78822,-0.61064c-0.19642,-0.09671 -0.40941,-0.16981 -0.63899,-0.21817c-0.22958,-0.04836 -0.44895,-0.05848 -0.65812,-0.03036s-0.40559,0.08997 -0.59052,0.18443c-0.18621,0.09446 -0.33161,0.23054 -0.44385,0.40147c-0.15178,0.23728 -0.19131,0.48131 -0.11989,0.72759c0.07398,0.24853 0.23085,0.43183 0.46808,0.55104c0.26784,0.13382 0.5293,0.15519 0.77929,0.06298c0.24998,-0.09221 0.42982,-0.22379 0.54206,-0.39922c0.15178,-0.23616 0.1505,-0.49818 -0.00893,-0.78157c0.31121,-0.06185 0.63389,-0.009 0.9655,0.15856c0.10331,0.05061 0.2181,0.12932 0.34437,0.23391c0.12372,0.10346 0.24616,0.24965 0.36477,0.43633c0.11989,0.18668 0.2283,0.41384 0.32013,0.68373c0.01658,0.04948 0.02933,0.11021 0.04464,0.16419c-1.16192,0.93114 -1.73076,2.34809 -1.40042,3.77516c-0.7423,0.65674 -1.36726,1.42819 -1.8583,2.28848l-6.58123,-3.29047c-0.61221,-0.30476 -1.39277,-0.11471 -1.73969,0.42396c-0.34564,0.54204 -0.13009,1.23027 0.48211,1.53728l6.93962,3.4659c-0.42217,1.50691 -0.49359,3.15665 -0.14923,4.83225l-7.43321,1.81392c-0.68108,0.16531 -1.07901,0.78607 -0.89025,1.38434c0.18749,0.59602 0.88898,0.94801 1.57006,0.78045l7.49826,-1.82966c0.64154,1.18866 1.73841,2.564 3.02405,3.87187l-4.07373,6.34141c-0.34692,0.54091 -0.13264,1.22802 0.48211,1.53278c0.30483,0.15407 0.65302,0.18218 0.96678,0.10571c0.31631,-0.07647 0.59818,-0.25752 0.77036,-0.52967l3.69237,-5.74539c3.44366,2.91712 7.24955,4.63657 7.36944,1.18416c2.03814,2.87888 4.40151,-0.3801 5.74199,-4.47126l6.63607,3.31409c0.3061,0.15519 0.65557,0.18218 0.97188,0.10571c0.31376,-0.07535 0.59563,-0.25752 0.76909,-0.52967c0.34692,-0.53867 0.13264,-1.2269 -0.48084,-1.53165l-7.27123,-3.63121c0.37115,-1.69247 0.53823,-3.35457 0.40686,-4.65344l7.50719,-1.82966c0.67598,-0.16531 1.08029,-0.78382 0.8877,-1.38209c-0.18876,-0.59827 -0.8928,-0.94913 -1.57133,-0.78382z" stroke-width="0" stroke="#4c4c4c" fill="#000000"/>
  </g>
  <g id="svg_16">
   <path fill-opacity="0" id="svg_3" d="m40.66002,254.72141l91.50002,-182.99998l244.00005,0l91.5,182.99998l-91.5,182.99998l-244.00005,0l-91.50002,-182.99998z" stroke-width="13" stroke="#000000" fill="#000000"/>
   <path stroke-dasharray="5,2,2,2,2,2" fill-opacity="0" id="svg_1" d="m46.29327,255.25965l89.08577,-176.00292l237.56204,0l89.08574,176.00292l-89.08574,176.00292l-237.56204,0l-89.08577,-176.00292z" stroke-width="8" stroke="#ffffff" fill="#000000"/>
  </g>
 </g>
</svg>