<svg width="40" height="40" viewBox="0 0 40 40" fill="none" xmlns="http://www.w3.org/2000/svg">
<g clip-path="url(#clip0_1_4)">
<rect width="40" height="40" rx="5" fill="#0066B3"/>
<path d="M9.6909 30L13.7709 10.68H24.8109C26.4509 10.68 27.7109 11.07 28.5909 11.85C29.4709 12.63 29.9109 13.66 29.9109 14.94C29.9109 15.12 29.9009 15.31 29.8809 15.51C29.8609 15.69 29.8309 15.88 29.7909 16.08C29.5909 17.06 29.2409 17.89 28.7409 18.57C28.2409 19.25 27.6609 19.79 27.0009 20.19C27.5809 20.47 28.0309 20.84 28.3509 21.3C28.6909 21.74 28.8609 22.32 28.8609 23.04C28.8609 23.22 28.8509 23.41 28.8309 23.61C28.8109 23.79 28.7809 23.99 28.7409 24.21C28.3609 26.03 27.5509 27.45 26.3109 28.47C25.0709 29.49 23.2709 30 20.9109 30H9.6909ZM18.3009 18.24H21.4809C22.1409 18.24 22.6209 18.11 22.9209 17.85C23.2409 17.57 23.4509 17.18 23.5509 16.68C23.5709 16.6 23.5809 16.53 23.5809 16.47C23.6009 16.39 23.6109 16.31 23.6109 16.23C23.6109 15.49 23.0909 15.12 22.0509 15.12H18.9609L18.3009 18.24ZM16.7409 25.59H20.0409C20.7209 25.59 21.2209 25.46 21.5409 25.2C21.8609 24.92 22.0909 24.49 22.2309 23.91C22.2509 23.83 22.2609 23.76 22.2609 23.7C22.2809 23.62 22.2909 23.55 22.2909 23.49C22.2909 22.73 21.7509 22.35 20.6709 22.35H17.4309L16.7409 25.59Z" fill="white"/>
</g>
<defs>
<clipPath id="clip0_1_4">
<rect width="40" height="40" rx="5" fill="white"/>
</clipPath>
</defs>
</svg>
